<svg id="Layer_1" data-name="Layer 1" xmlns="http://www.w3.org/2000/svg" xmlns:xlink="http://www.w3.org/1999/xlink" viewBox="0 0 1024 1024"><defs><style>.cls-1{fill:none;}.cls-2{fill:#fff;}.cls-3{opacity:0.7;}.cls-4{clip-path:url(#clip-path);}.cls-5{clip-path:url(#clip-path-2);}.cls-6{fill:#020202;}.cls-7{clip-path:url(#clip-path-3);}.cls-8{clip-path:url(#clip-path-4);}</style><clipPath id="clip-path"><rect class="cls-1" x="633.99" y="222" width="136.24" height="430.7"/></clipPath><clipPath id="clip-path-2"><rect class="cls-1" x="638.38" y="222" width="123.06" height="421.91"/></clipPath><clipPath id="clip-path-3"><rect class="cls-1" x="259.43" y="222" width="136.24" height="430.7"/></clipPath><clipPath id="clip-path-4"><rect class="cls-1" x="263.82" y="222" width="127.45" height="421.91"/></clipPath></defs><path class="cls-2" d="M0,184.58V840.93C0,941.61,82.39,1024,183.12,1024h657.8C941.61,1024,1024,941.61,1024,840.93V183.11C1024,82.39,941.61,0,840.92,0H183.12C82.39,0,0,82.39,0,183.11"/><rect x="263.82" y="694.65" width="501.18" height="92.29"/><g class="cls-3"><g class="cls-4"><g class="cls-5"><polygon class="cls-6" points="761.44 224.82 637.21 434.82 761.44 644.84 761.44 224.82"/></g></g></g><polygon points="762.04 223 597.01 223 513.15 364.73 429.33 223 262.93 223 388.5 431.33 513.62 642.88 637.38 433.69 637.38 433.67 761.65 223.66 762.04 223"/><g class="cls-3"><g class="cls-7"><g class="cls-8"><polygon points="263.82 224.82 263.82 645.47 389.39 433.18 263.82 224.82"/></g></g></g></svg>